<svg xmlns="http://www.w3.org/2000/svg" width="400" height="400" viewBox="0 0 400 400" role="img" aria-label="Farm inputs">
  <rect width="400" height="400" fill="#f7edd3"/>
  <!-- soil -->
  <path d="M0 300 Q200 272 400 300 V400 H0 Z" fill="#c8a468"/>
  <path d="M0 328 Q200 306 400 328" fill="none" stroke="#b18e52" stroke-width="6" stroke-linecap="round"/>
  <path d="M0 360 Q200 342 400 360" fill="none" stroke="#b18e52" stroke-width="6" stroke-linecap="round"/>
  <!-- sack -->
  <g>
    <path d="M150 168 h100 l-10 132 q-40 16 -80 0 z" fill="#dcb877"/>
    <path d="M150 168 h100 l-10 132 q-40 16 -80 0 z" fill="none" stroke="#c39f5b" stroke-width="3"/>
    <ellipse cx="200" cy="168" rx="50" ry="16" fill="#e7ca90"/>
    <path d="M168 158 q32 -20 64 0" fill="none" stroke="#c39f5b" stroke-width="4" stroke-linecap="round"/>
    <circle cx="200" cy="232" r="26" fill="#f7edd3"/>
    <g stroke="#e8a33d" fill="none" stroke-width="2.4" stroke-linecap="round" stroke-linejoin="round">
      <path d="M200 246v-14"/><path d="M200 232c0-6-4-10-10-10 0 6 4 10 10 10z"/><path d="M200 232c0-6 4-10 10-10 0 6-4 10-10 10z"/>
    </g>
  </g>
  <!-- spilled seeds -->
  <g fill="#e8a33d">
    <ellipse cx="130" cy="300" rx="7" ry="4.5" transform="rotate(-20 130 300)"/>
    <ellipse cx="112" cy="312" rx="7" ry="4.5" transform="rotate(15 112 312)"/>
    <ellipse cx="286" cy="304" rx="7" ry="4.5" transform="rotate(25 286 304)"/>
    <ellipse cx="300" cy="316" rx="7" ry="4.5" transform="rotate(-10 300 316)"/>
  </g>
  <!-- sprout -->
  <g transform="translate(300 250)" stroke="#5aa84b" fill="none" stroke-width="4" stroke-linecap="round">
    <path d="M0 40V8"/>
  </g>
  <path d="M300 260 q-18 -4 -24 -20 q16 -2 24 16z" fill="#7bbf54"/>
  <path d="M300 268 q16 -6 24 -2 q-8 12 -24 2z" fill="#9fd95a"/>
</svg>
