<svg xmlns="http://www.w3.org/2000/svg" width="400" height="400" viewBox="0 0 400 400" role="img" aria-label="Skills and compliance">
  <rect width="400" height="400" fill="#eef7df"/>
  <!-- certificate card -->
  <g>
    <rect x="112" y="108" width="176" height="196" rx="12" fill="#ffffff" stroke="#d7e4c4" stroke-width="3"/>
    <rect x="140" y="140" width="120" height="12" rx="6" fill="#cfe0a6"/>
    <rect x="140" y="166" width="120" height="9" rx="4.5" fill="#e2ecd0"/>
    <rect x="140" y="184" width="96" height="9" rx="4.5" fill="#e2ecd0"/>
    <rect x="140" y="202" width="110" height="9" rx="4.5" fill="#e2ecd0"/>
    <!-- rice sprig -->
    <g transform="translate(150 232)" stroke="#5aa84b" fill="none" stroke-width="3" stroke-linecap="round">
      <path d="M4 40V6"/><path d="M4 14C-2 12-6 6-6 0 0 0 4 6 4 12"/><path d="M4 14C10 12 14 6 14 0 8 0 4 6 4 12"/>
    </g>
  </g>
  <!-- check seal -->
  <g transform="translate(250 250)">
    <circle r="42" fill="#8ec63f"/>
    <circle r="42" fill="none" stroke="#ffffff" stroke-width="3" stroke-dasharray="3 6"/>
    <path d="M-16 2 l10 11 l22 -24" fill="none" stroke="#ffffff" stroke-width="6" stroke-linecap="round" stroke-linejoin="round"/>
  </g>
</svg>
